# xmcd
#
# Track frame offsets:
#	150
#	15075
#	28808
#	63860
#	85812
#	100345
#	114286
#	131465
#	149370
#	172638
#	188639
#	203483
#	221825
#	242713
#	258064
#	275538
#	295113
#	309786
#	325538
#
# Disc length: 4498 seconds
#
# Revision: 1
# Processed by: cddbd v1.5.2PL0 Copyright (c) Steve Scherf et al.
# Submitted via: EasyCDDAExtractor 11.1.0.1
#
DISCID=f1119013
DTITLE=Various Artist - Byron Bay Bluesfest 2014 - Disc 1
DYEAR=2014
DGENRE=Blues
TTITLE0=Elvis Costello And The Attractions - Pump It Up
TTITLE1=Jack Johnson - I Got You
TTITLE2=Gary Clark Jr - When My Train Pulls In
TTITLE3=Erykah Badu - Window Seat
TTITLE4=India.Arie - Just Do You
TTITLE5=KC And The Sunshine Band - That's The Way I Like It
TTITLE6=Michael Franti And Spearhead - Hey Hey Hey
TTITLE7=Morcheeba featuring Chali2Na - Face Of Danger
TTITLE8=Doobie Brothers - World Gone Crazy
TTITLE9=Passenger - Holes
TTITLE10=Jake Bugg - Two Fingers
TTITLE11=Foy Vance -  Closed Hand, Full Of Friends
TTITLE12=Eric Bibb - Can't Please Everybody
TTITLE13=Kasey Chambers - Devil On Your Back
TTITLE14=KT Tunstall - Invisible Empire
TTITLE15=Trixie Whitley - Breathe You In My Dreams
TTITLE16=Glenn Cardier - Jump Jump
TTITLE17=James Cotton - Midnight Train
TTITLE18=Cambodian Space Project - Dance Twist
EXTD=
EXTT0=
EXTT1=
EXTT2=
EXTT3=
EXTT4=
EXTT5=
EXTT6=
EXTT7=
EXTT8=
EXTT9=
EXTT10=
EXTT11=
EXTT12=
EXTT13=
EXTT14=
EXTT15=
EXTT16=
EXTT17=
EXTT18=
PLAYORDER=
